<?xml version="1.0" encoding="UTF-8"?>
<svg id="Calque_1" data-name="Calque 1" xmlns="http://www.w3.org/2000/svg" viewBox="0 0 1920 1080">
  <defs>
    <style>
      .cls-1 {
        stroke: #de6c83;
      }

      .cls-1, .cls-2, .cls-3 {
        fill: none;
      }

      .cls-1, .cls-2, .cls-3, .cls-4 {
        stroke-miterlimit: 10;
      }

      .cls-2 {
        stroke: #9bbbb6;
      }

      .cls-5, .cls-4 {
        fill: #fff;
      }

      .cls-3 {
        stroke-width: .25px;
      }

      .cls-3, .cls-4 {
        stroke: #fff;
      }
    </style>
  </defs>
  <path d="M947.49,135.9s9.59,21.44,9.54,24.83,2.97,13.74,2.97,13.74l7.86-28.56,5.05-10.77-25.43.76Z"/>
  <path d="M916.9,47.2h91.44l32.33,33.66-18.55,24.25s-44.99,28.12-46.69,28.86c-6.53,2.83-15.44,40.5-15.44,40.5,0,0-12.48-35.06-15.76-42.68-1.61-3.73-65.76-60.31-65.76-60.31l38.43-24.28Z"/>
  <g>
    <g>
      <g>
        <path class="cls-4" d="M885.56,65.46s-.72,7.08,1.98,11.49c2.22,3.64,3.91,8.06,11.91,10.65,10.7,3.46,26.88-4.96,25.6-24.97-2.09-32.82-47.94-47.37-66.71-35.7-26.1,16.22-29.09,50.65-5.26,72.99,18.1,16.97,67.6,14.43,83.14,29.16,12.33,11.69,22.68,40.97,22.68,40.97,0,0-2.23-20.02-15.5-41.29-14.17-22.72-29.08-31.1-39.6-40.16"/>
        <path class="cls-4" d="M1034.44,65.46s.72,7.08-1.98,11.49c-2.22,3.64-3.91,8.06-11.91,10.65-10.7,3.46-26.88-4.96-25.6-24.97,2.09-32.82,47.94-47.37,66.71-35.7,26.1,16.22,29.09,50.65,5.26,72.99-18.1,16.97-67.6,14.43-83.14,29.16-12.33,11.69-22.68,40.97-22.68,40.97,0,0,2.23-20.02,15.5-41.29,14.17-22.72,29.08-31.1,39.6-40.16"/>
      </g>
      <g>
        <path class="cls-5" d="M960,114.13c0-20.45-6.54-26.99-26.99-26.99,20.45,0,26.99-6.54,26.99-26.99,0,20.45,6.54,26.99,26.99,26.99-20.45,0-26.99,6.54-26.99,26.99Z"/>
        <path class="cls-3" d="M960,114.13c0-20.45-6.54-26.99-26.99-26.99,20.45,0,26.99-6.54,26.99-26.99,0,20.45,6.54,26.99,26.99,26.99-20.45,0-26.99,6.54-26.99,26.99Z"/>
      </g>
    </g>
    <g>
      <g>
        <path class="cls-1" d="M885.56,65.46s-.72,7.08,1.98,11.49c2.22,3.64,3.91,8.06,11.91,10.65,10.7,3.46,26.88-4.96,25.6-24.97-2.09-32.82-47.94-47.37-66.71-35.7-26.1,16.22-29.09,50.65-5.26,72.99,18.1,16.97,67.6,14.43,83.14,29.16,12.33,11.69,22.68,40.97,22.68,40.97,0,0-2.23-20.02-15.5-41.29-14.17-22.72-29.08-31.1-39.6-40.16"/>
        <path class="cls-2" d="M1034.44,65.46s.72,7.08-1.98,11.49c-2.22,3.64-3.91,8.06-11.91,10.65-10.7,3.46-26.88-4.96-25.6-24.97,2.09-32.82,47.94-47.37,66.71-35.7,26.1,16.22,29.09,50.65,5.26,72.99-18.1,16.97-67.6,14.43-83.14,29.16-12.33,11.69-22.68,40.97-22.68,40.97,0,0,2.23-20.02,15.5-41.29,14.17-22.72,29.08-31.1,39.6-40.16"/>
      </g>
      <g>
        <path class="cls-5" d="M960,114.13c0-20.45-6.54-26.99-26.99-26.99,20.45,0,26.99-6.54,26.99-26.99,0,20.45,6.54,26.99,26.99,26.99-20.45,0-26.99,6.54-26.99,26.99Z"/>
        <path class="cls-3" d="M960,114.13c0-20.45-6.54-26.99-26.99-26.99,20.45,0,26.99-6.54,26.99-26.99,0,20.45,6.54,26.99,26.99,26.99-20.45,0-26.99,6.54-26.99,26.99Z"/>
      </g>
    </g>
  </g>
</svg>